<?xml version="1.0" encoding="utf-8"?>
<!-- Generator: Adobe Illustrator 24.2.0, SVG Export Plug-In . SVG Version: 6.00 Build 0)  -->
<svg version="1.1" id="Capa_1" xmlns="http://www.w3.org/2000/svg" xmlns:xlink="http://www.w3.org/1999/xlink" x="0px" y="0px"
	 viewBox="0 0 24 24" style="enable-background:new 0 0 24 24;" xml:space="preserve">
<path d="M23,18v2h-8v-2H23"/>
<path d="M23,10l0,0.3l-1,3.5c-0.9-0.5-1.9-0.8-3-0.8c-3.3,0-6,2.7-6,6c0,0.7,0.1,1.4,0.4,2H5.5c-0.8,0-1.5-0.5-1.8-1.1l-2.6-9.5
	L1,10c0-0.6,0.5-1,1-1h4.6l4.6-6.6C11.4,2.2,11.7,2,12,2s0.6,0.2,0.8,0.4L17.4,9H22C22.5,9,23,9.4,23,10 M14,15c0-1.1-0.9-2-2-2
	s-2,0.9-2,2s0.9,2,2,2S14,16.1,14,15 M15,9l-3-4.3L9,9H15z"/>
</svg>
