<?xml version="1.0" encoding="utf-8"?>
<!-- Generator: Adobe Illustrator 24.2.0, SVG Export Plug-In . SVG Version: 6.00 Build 0)  -->
<svg version="1.1" id="Capa_1" xmlns="http://www.w3.org/2000/svg" xmlns:xlink="http://www.w3.org/1999/xlink" x="0px" y="0px"
	 viewBox="0 0 24 24" style="enable-background:new 0 0 24 24;" xml:space="preserve">
<path d="M22.5,16.9L20.4,19l2.1,2.1l-1.4,1.4L19,20.4l-2.1,2.1l-1.4-1.4l2.1-2.1l-2.1-2.1l1.4-1.4l2.1,2.1l2.1-2.1L22.5,16.9 M12,13
	c-1.1,0-2,0.9-2,2s0.9,2,2,2s2-0.9,2-2S13.1,13,12,13 M13.4,21H5.5c-0.9,0-1.7-0.6-1.9-1.5L1,10.3c0-0.1,0-0.2,0-0.3
	c0-0.6,0.5-1,1-1h4.8l4.4-6.6C11.4,2.2,11.7,2,12,2s0.6,0.2,0.8,0.4L17.2,9H22c0.5,0,1,0.4,1,1l0,0.3l-1,3.5
	c-0.6-0.3-1.2-0.6-1.9-0.7l0.6-2.1H3.3l2.2,8H13C13,19.7,13.1,20.4,13.4,21 M9.2,9h5.6L12,4.8L9.2,9z"/>
</svg>
