<?xml version="1.0" encoding="utf-8"?>
<!-- Generator: Adobe Illustrator 24.2.0, SVG Export Plug-In . SVG Version: 6.00 Build 0)  -->
<svg version="1.1" id="Capa_1" xmlns="http://www.w3.org/2000/svg" xmlns:xlink="http://www.w3.org/1999/xlink" x="0px" y="0px"
	 viewBox="0 0 24 24" style="enable-background:new 0 0 24 24;" xml:space="preserve">
<path d="M14,15c0-1.1-0.9-2-2-2s-2,0.9-2,2s0.9,2,2,2S14,16.1,14,15"/>
<path d="M22,9h-4.8l-4.4-6.6C12.6,2.2,12.3,2,12,2s-0.6,0.2-0.8,0.5L6.8,9H2c-0.5,0-1,0.4-1,1c0,0.1,0,0.2,0,0.3l2.5,9.3
	c0.2,0.8,1,1.5,1.9,1.5h13c0.9,0,1.7-0.6,1.9-1.5l2.5-9.3l0-0.3C23,9.4,22.5,9,22,9 M12,4.8L14.8,9H9.2L12,4.8 M18.5,19h-13l-2.2-8
	h17.4L18.5,19 M12,13c-1.1,0-2,0.9-2,2s0.9,2,2,2s2-0.9,2-2S13.1,13,12,13z"/>
</svg>
